<?xml version="1.0" encoding="UTF-8" standalone="no"?>
<!-- Created with Inkscape (http://www.inkscape.org/) -->

<svg
   width="48.542221mm"
   height="48.542221mm"
   viewBox="0 0 172 172"
   id="svg13110"
   version="1.1"
   inkscape:version="1.1.1 (3bf5ae0d25, 2021-09-20)"
   sodipodi:docname="Polygone.svg"
   xmlns:inkscape="http://www.inkscape.org/namespaces/inkscape"
   xmlns:sodipodi="http://sodipodi.sourceforge.net/DTD/sodipodi-0.dtd"
   xmlns="http://www.w3.org/2000/svg"
   xmlns:svg="http://www.w3.org/2000/svg"
   xmlns:rdf="http://www.w3.org/1999/02/22-rdf-syntax-ns#"
   xmlns:cc="http://creativecommons.org/ns#"
   xmlns:dc="http://purl.org/dc/elements/1.1/">
  <defs
     id="defs13112" />
  <sodipodi:namedview
     id="base"
     pagecolor="#ffffff"
     bordercolor="#666666"
     borderopacity="1.0"
     inkscape:pageopacity="0.0"
     inkscape:pageshadow="2"
     inkscape:zoom="4.6514968"
     inkscape:cx="91.690915"
     inkscape:cy="91.690915"
     inkscape:document-units="px"
     inkscape:current-layer="layer1"
     showgrid="false"
     fit-margin-top="0"
     fit-margin-left="0"
     fit-margin-right="0"
     fit-margin-bottom="0"
     inkscape:window-width="1920"
     inkscape:window-height="1017"
     inkscape:window-x="-8"
     inkscape:window-y="599"
     inkscape:window-maximized="1"
     inkscape:pagecheckerboard="0" />
  <metadata
     id="metadata13115">
    <rdf:RDF>
      <cc:Work
         rdf:about="">
        <dc:format>image/svg+xml</dc:format>
        <dc:type
           rdf:resource="http://purl.org/dc/dcmitype/StillImage" />
      </cc:Work>
    </rdf:RDF>
  </metadata>
  <g
     inkscape:label="Calque 1"
     inkscape:groupmode="layer"
     id="layer1"
     transform="translate(-151.14286,-132.07648)">
    <path
       style="fill:none;stroke:#d40000;stroke-width:8;stroke-linecap:round;stroke-linejoin:round;stroke-miterlimit:4;stroke-dasharray:none;stroke-opacity:1"
       d="m 202.14286,149.07649 -37,61 31,58 92.00001,19 11.16756,-95.95956 -51.77301,6.30294 z"
       id="path3077"
       inkscape:connector-curvature="0"
       sodipodi:nodetypes="ccccccc"
       inkscape:export-filename="C:\Users\Seb\Downloads\maths\Mathgraph32\Icones\png\24\Polygone.png"
       inkscape:export-xdpi="12.55814"
       inkscape:export-ydpi="12.55814" />
    <path
       id="rect1225"
       style="fill:#009100;fill-opacity:1;stroke:none;stroke-width:0.9375;stroke-linecap:round;stroke-linejoin:round;stroke-opacity:1"
       d="m 186.41199,206.90253 -17.08488,-0.38525 0.38524,-17.08489 -7.24913,-0.16346 -0.38525,17.08488 -17.08489,-0.38524 -0.16346,7.24913 17.08489,0.38526 -0.38529,17.08672 7.24914,0.16345 0.38528,-17.08671 17.0849,0.38525 z" />
    <path
       id="rect1225-6"
       style="fill:#009100;fill-opacity:1;stroke:none;stroke-width:0.9375;stroke-linecap:round;stroke-linejoin:round;stroke-opacity:1"
       d="m 221.76634,139.96456 -16.46768,4.56696 -4.56697,-16.46769 -6.98725,1.93777 4.56696,16.46768 -16.46769,4.56697 1.93777,6.98725 16.46769,-4.56696 4.56745,16.46946 6.98726,-1.93778 -4.56746,-16.46944 16.4677,-4.56697 z" />
    <path
       id="rect1225-3"
       style="fill:#009100;fill-opacity:1;stroke:none;stroke-width:0.9375;stroke-linecap:round;stroke-linejoin:round;stroke-opacity:1"
       d="m 251.35749,176.85729 -5.5735,16.15481 -16.15482,-5.57349 -2.36484,6.85449 16.15481,5.5735 -5.57349,16.15482 6.85449,2.36484 5.57351,-16.15482 16.15655,5.5741 2.36483,-6.8545 -16.15654,-5.57409 5.5735,-16.15482 z" />
    <path
       id="rect1225-5"
       style="fill:#009100;fill-opacity:1;stroke:none;stroke-width:0.9375;stroke-linecap:round;stroke-linejoin:round;stroke-opacity:1"
       d="m 311.28131,173.50271 -12.08391,12.08391 -12.08392,-12.08391 -5.12721,5.12721 12.08391,12.08391 -12.08391,12.08392 5.12721,5.12721 12.08392,-12.08391 12.08521,12.08521 5.12721,-5.12722 -12.08521,-12.0852 12.08392,-12.08392 z" />
    <path
       id="rect1225-35"
       style="fill:#009100;fill-opacity:1;stroke:none;stroke-width:0.9375;stroke-linecap:round;stroke-linejoin:round;stroke-opacity:1"
       d="m 299.15949,270.03702 -12.08391,12.08391 -12.08392,-12.08391 -5.12721,5.12721 12.08391,12.08391 -12.08391,12.08392 5.12721,5.12721 12.08392,-12.08391 12.08521,12.08521 5.12721,-5.12722 -12.08521,-12.0852 12.08392,-12.08392 z" />
    <path
       id="rect1225-4"
       style="fill:#009100;fill-opacity:1;stroke:none;stroke-width:0.9375;stroke-linecap:round;stroke-linejoin:round;stroke-opacity:1"
       d="m 208.7651,250.27179 -12.08391,12.08391 -12.08392,-12.08391 -5.12721,5.12721 12.08391,12.08391 -12.08391,12.08392 5.12721,5.12721 12.08392,-12.08391 12.08521,12.08521 5.12721,-5.12722 -12.08521,-12.0852 12.08392,-12.08392 z" />
  </g>
</svg>
